ffmpeg started on 2025-06-07 at 18:30:43
Report written to "D:\Convert\FFMetrics\reports\psnr_report-6.txt"
Log level: 32
Command line:
ffmpeg -hide_banner -nostdin -i "G:\\\xc0\xed\xe8\xec\xe5\\\xce\xed\xe3\xee\xe8\xed\xe3\xe8\\!_36_\xce\xf1\xe5\xed\xfc_2024\\DreamCast\\\xdf \xf1\xf2\xe0\xed\xf3 \xe7\xeb\xee\xe4\xe5\xe9\xea\xee\xe9, \xea\xee\xf2\xee\xf0\xe0\xff \xe2\xee\xe9\xe4\xb8\xf2 \xe2 \xe8\xf1\xf2\xee\xf0\xe8\xfe\\[DC] Rekishi ni Nokoru Akujo ni Naruzo - 12_Telegram_HEVC.mkv" -i "G:\\\xc0\xed\xe8\xec\xe5\\\xce\xed\xe3\xee\xe8\xed\xe3\xe8\\!_36_\xce\xf1\xe5\xed\xfc_2024\\DreamCast\\\xdf \xf1\xf2\xe0\xed\xf3 \xe7\xeb\xee\xe4\xe5\xe9\xea\xee\xe9, \xea\xee\xf2\xee\xf0\xe0\xff \xe2\xee\xe9\xe4\xb8\xf2 \xe2 \xe8\xf1\xf2\xee\xf0\xe8\xfe\\[DC] Rekishi ni Nokoru Akujo ni Naruzo - 12_Telegram.mp4" -lavfi "[0:v]settb=AVTB,setpts=PTS-STARTPTS,format=pix_fmts=yuv420p10,fps=24000/1001,scale=1920:1080:flags=bicubic[main];[1:v]settb=AVTB,setpts=PTS-STARTPTS,format=pix_fmts=yuv420p,fps=24000/1001,scale=1920:1080:flags=bicubic[ref];[main][ref]psnr=eof_action=endall:stats_file='D\\:/Convert/FFMetrics/logs/psnr_logfile-6.txt'" -f null -
Input #0, matroska,webm, from 'G:\Аниме\Онгоинги\!_36_Осень_2024\DreamCast\Я стану злодейкой, которая войдёт в историю\[DC] Rekishi ni Nokoru Akujo ni Naruzo - 12_Telegram_HEVC.mkv':
  Metadata:
    COMPATIBLE_BRANDS: isomiso2avc1mp41
    MAJOR_BRAND     : isom
    MINOR_VERSION   : 512
    ENCODER         : Lavf61.7.100
  Duration: 00:23:46.69, start: -0.021000, bitrate: 788 kb/s
  Stream #0:0: Video: hevc (Main 10), yuv420p10le(tv, bt709, progressive), 1920x1080 [SAR 1:1 DAR 16:9], 23.98 fps, 23.98 tbr, 1k tbn (default)
      Metadata:
        HANDLER_NAME    : VideoHandler
        VENDOR_ID       : [0][0][0][0]
        ENCODER         : Lavc61.19.100 libx265
        BPS             : 590096
        DURATION        : 00:23:46.508708333
        NUMBER_OF_FRAMES: 34202
        NUMBER_OF_BYTES : 105222121
        _STATISTICS_WRITING_APP: mkvpropedit v66.0.0 ('Josie') 64-bit
        _STATISTICS_WRITING_DATE_UTC: 2025-06-06 11:33:40
        _STATISTICS_TAGS: BPS DURATION NUMBER_OF_FRAMES NUMBER_OF_BYTES
  Stream #0:1: Audio: aac (LC), 48000 Hz, stereo, fltp (default)
      Metadata:
        HANDLER_NAME    : SoundHandler
        VENDOR_ID       : [0][0][0][0]
        ENCODER         : Lavc61.19.100 aac
        BPS             : 194104
        DURATION        : 00:23:46.688000000
        NUMBER_OF_FRAMES: 66877
        NUMBER_OF_BYTES : 34615850
        _STATISTICS_WRITING_APP: mkvpropedit v66.0.0 ('Josie') 64-bit
        _STATISTICS_WRITING_DATE_UTC: 2025-06-06 11:33:40
        _STATISTICS_TAGS: BPS DURATION NUMBER_OF_FRAMES NUMBER_OF_BYTES
Input #1, mov,mp4,m4a,3gp,3g2,mj2, from 'G:\Аниме\Онгоинги\!_36_Осень_2024\DreamCast\Я стану злодейкой, которая войдёт в историю\[DC] Rekishi ni Nokoru Akujo ni Naruzo - 12_Telegram.mp4':
  Metadata:
    major_brand     : isom
    minor_version   : 512
    compatible_brands: isomiso2avc1mp41
    encoder         : Lavf61.1.100
  Duration: 00:23:46.63, start: 0.000000, bitrate: 3156 kb/s
  Stream #1:0[0x1](und): Video: h264 (High) (avc1 / 0x31637661), yuv420p(tv, bt709, progressive), 1920x1080 [SAR 1:1 DAR 16:9], 3008 kb/s, 23.98 fps, 23.98 tbr, 24k tbn (default)
      Metadata:
        handler_name    : VideoHandler
        vendor_id       : [0][0][0][0]
        encoder         : Lavc61.3.100 h264_qsv
  Stream #1:1[0x2](und): Audio: aac (HE-AACv2) (mp4a / 0x6134706D), 48000 Hz, stereo, fltp, 144 kb/s (default)
      Metadata:
        handler_name    : SoundHandler
        vendor_id       : [0][0][0][0]
Stream mapping:
  Stream #0:0 (hevc) -> settb:default
  Stream #1:0 (h264) -> settb:default
  psnr:default -> Stream #0:0 (wrapped_avframe)
  Stream #0:1 -> #0:1 (aac (native) -> pcm_s16le (native))
Output #0, null, to 'pipe:':
  Metadata:
    COMPATIBLE_BRANDS: isomiso2avc1mp41
    MAJOR_BRAND     : isom
    MINOR_VERSION   : 512
    encoder         : Lavf61.7.100
  Stream #0:0: Video: wrapped_avframe, yuv420p10le(tv, bt709, progressive), 1920x1080 [SAR 1:1 DAR 16:9], q=2-31, 200 kb/s, 23.98 fps, 23.98 tbn
      Metadata:
        encoder         : Lavc61.19.100 wrapped_avframe
  Stream #0:1: Audio: pcm_s16le, 48000 Hz, stereo, s16, 1536 kb/s (default)
      Metadata:
        HANDLER_NAME    : SoundHandler
        VENDOR_ID       : [0][0][0][0]
        _STATISTICS_TAGS: BPS DURATION NUMBER_OF_FRAMES NUMBER_OF_BYTES
        BPS             : 194104
        DURATION        : 00:23:46.688000000
        NUMBER_OF_FRAMES: 66877
        NUMBER_OF_BYTES : 34615850
        _STATISTICS_WRITING_APP: mkvpropedit v66.0.0 ('Josie') 64-bit
        _STATISTICS_WRITING_DATE_UTC: 2025-06-06 11:33:40
        encoder         : Lavc61.19.100 pcm_s16le
frame=  166 fps=0.0 q=-0.0 size=N/A time=00:00:06.92 bitrate=N/A speed=13.4x    frame=  386 fps=377 q=-0.0 size=N/A time=00:00:16.09 bitrate=N/A speed=15.7x    frame=  647 fps=418 q=-0.0 size=N/A time=00:00:26.98 bitrate=N/A speed=17.4x    frame=  897 fps=437 q=-0.0 size=N/A time=00:00:37.41 bitrate=N/A speed=18.2x    frame= 1144 fps=443 q=-0.0 size=N/A time=00:00:47.75 bitrate=N/A speed=18.5x    frame= 1387 fps=448 q=-0.0 size=N/A time=00:00:57.84 bitrate=N/A speed=18.7x    frame= 1593 fps=439 q=-0.0 size=N/A time=00:01:06.44 bitrate=N/A speed=18.3x    frame= 1767 fps=427 q=-0.0 size=N/A time=00:01:13.69 bitrate=N/A speed=17.8x    frame= 1963 fps=422 q=-0.0 size=N/A time=00:01:21.87 bitrate=N/A speed=17.6x    frame= 2168 fps=420 q=-0.0 size=N/A time=00:01:30.42 bitrate=N/A speed=17.5x    frame= 2375 fps=418 q=-0.0 size=N/A time=00:01:39.05 bitrate=N/A speed=17.4x    frame= 2567 fps=414 q=-0.0 size=N/A time=00:01:47.06 bitrate=N/A speed=17.3x    frame= 2772 fps=413 q=-0.0 size=N/A time=00:01:55.61 bitrate=N/A speed=17.2x    frame= 2996 fps=414 q=-0.0 size=N/A time=00:02:04.95 bitrate=N/A speed=17.3x    frame= 3167 fps=409 q=-0.0 size=N/A time=00:02:12.09 bitrate=N/A speed=  17x    frame= 3411 fps=413 q=-0.0 size=N/A time=00:02:22.26 bitrate=N/A speed=17.2x    frame= 3631 fps=414 q=-0.0 size=N/A time=00:02:31.44 bitrate=N/A speed=17.2x    frame= 3872 fps=417 q=-0.0 size=N/A time=00:02:41.49 bitrate=N/A speed=17.4x    frame= 4116 fps=419 q=-0.0 size=N/A time=00:02:51.67 bitrate=N/A speed=17.5x    frame= 4348 fps=421 q=-0.0 size=N/A time=00:03:01.34 bitrate=N/A speed=17.6x    frame= 4584 fps=423 q=-0.0 size=N/A time=00:03:11.19 bitrate=N/A speed=17.6x    frame= 4822 fps=425 q=-0.0 size=N/A time=00:03:21.11 bitrate=N/A speed=17.7x    frame= 5073 fps=427 q=-0.0 size=N/A time=00:03:31.58 bitrate=N/A speed=17.8x    frame= 5347 fps=432 q=-0.0 size=N/A time=00:03:43.01 bitrate=N/A speed=  18x    frame= 5597 fps=434 q=-0.0 size=N/A time=00:03:53.44 bitrate=N/A speed=18.1x    frame= 5867 fps=437 q=-0.0 size=N/A time=00:04:04.70 bitrate=N/A speed=18.2x    frame= 6141 fps=441 q=-0.0 size=N/A time=00:04:16.13 bitrate=N/A speed=18.4x    frame= 6394 fps=442 q=-0.0 size=N/A time=00:04:26.68 bitrate=N/A speed=18.4x    frame= 6657 fps=445 q=-0.0 size=N/A time=00:04:37.65 bitrate=N/A speed=18.6x    frame= 6882 fps=445 q=-0.0 size=N/A time=00:04:47.03 bitrate=N/A speed=18.5x    frame= 7124 fps=445 q=-0.0 size=N/A time=00:04:57.13 bitrate=N/A speed=18.6x    frame= 7372 fps=446 q=-0.0 size=N/A time=00:05:07.47 bitrate=N/A speed=18.6x    frame= 7630 fps=448 q=-0.0 size=N/A time=00:05:18.23 bitrate=N/A speed=18.7x    frame= 7867 fps=449 q=-0.0 size=N/A time=00:05:28.11 bitrate=N/A speed=18.7x    frame= 8143 fps=451 q=-0.0 size=N/A time=00:05:39.63 bitrate=N/A speed=18.8x    frame= 8387 fps=452 q=-0.0 size=N/A time=00:05:49.80 bitrate=N/A speed=18.8x    frame= 8659 fps=454 q=-0.0 size=N/A time=00:06:01.15 bitrate=N/A speed=18.9x    frame= 8919 fps=455 q=-0.0 size=N/A time=00:06:11.99 bitrate=N/A speed=  19x    frame= 9170 fps=456 q=-0.0 size=N/A time=00:06:22.46 bitrate=N/A speed=  19x    frame= 9430 fps=457 q=-0.0 size=N/A time=00:06:33.30 bitrate=N/A speed=19.1x    frame= 9699 fps=459 q=-0.0 size=N/A time=00:06:44.52 bitrate=N/A speed=19.1x    frame= 9963 fps=460 q=-0.0 size=N/A time=00:06:55.54 bitrate=N/A speed=19.2x    frame=10208 fps=460 q=-0.0 size=N/A time=00:07:05.75 bitrate=N/A speed=19.2x    frame=10454 fps=461 q=-0.0 size=N/A time=00:07:16.01 bitrate=N/A speed=19.2x    frame=10703 fps=461 q=-0.0 size=N/A time=00:07:26.40 bitrate=N/A speed=19.2x    frame=10955 fps=462 q=-0.0 size=N/A time=00:07:36.91 bitrate=N/A speed=19.3x    frame=11203 fps=462 q=-0.0 size=N/A time=00:07:47.25 bitrate=N/A speed=19.3x    frame=11469 fps=463 q=-0.0 size=N/A time=00:07:58.35 bitrate=N/A speed=19.3x    frame=11712 fps=463 q=-0.0 size=N/A time=00:08:08.48 bitrate=N/A speed=19.3x    frame=11964 fps=464 q=-0.0 size=N/A time=00:08:18.99 bitrate=N/A speed=19.3x    frame=12220 fps=464 q=-0.0 size=N/A time=00:08:29.67 bitrate=N/A speed=19.4x    frame=12455 fps=464 q=-0.0 size=N/A time=00:08:39.47 bitrate=N/A speed=19.4x    frame=12682 fps=464 q=-0.0 size=N/A time=00:08:48.94 bitrate=N/A speed=19.3x    frame=12889 fps=463 q=-0.0 size=N/A time=00:08:57.57 bitrate=N/A speed=19.3x    frame=13104 fps=462 q=-0.0 size=N/A time=00:09:06.54 bitrate=N/A speed=19.3x    frame=13338 fps=462 q=-0.0 size=N/A time=00:09:16.30 bitrate=N/A speed=19.3x    frame=13582 fps=462 q=-0.0 size=N/A time=00:09:26.48 bitrate=N/A speed=19.3x    frame=13822 fps=462 q=-0.0 size=N/A time=00:09:36.49 bitrate=N/A speed=19.3x    frame=14097 fps=463 q=-0.0 size=N/A time=00:09:47.96 bitrate=N/A speed=19.3x    frame=14356 fps=464 q=-0.0 size=N/A time=00:09:58.76 bitrate=N/A speed=19.3x    frame=14600 fps=464 q=-0.0 size=N/A time=00:10:08.94 bitrate=N/A speed=19.4x    frame=14822 fps=463 q=-0.0 size=N/A time=00:10:18.20 bitrate=N/A speed=19.3x    frame=15076 fps=464 q=-0.0 size=N/A time=00:10:28.79 bitrate=N/A speed=19.3x    frame=15329 fps=464 q=-0.0 size=N/A time=00:10:39.34 bitrate=N/A speed=19.4x    frame=15604 fps=465 q=-0.0 size=N/A time=00:10:50.81 bitrate=N/A speed=19.4x    frame=15880 fps=466 q=-0.0 size=N/A time=00:11:02.32 bitrate=N/A speed=19.5x    frame=16125 fps=467 q=-0.0 size=N/A time=00:11:12.54 bitrate=N/A speed=19.5x    frame=16367 fps=467 q=-0.0 size=N/A time=00:11:22.64 bitrate=N/A speed=19.5x    frame=16615 fps=467 q=-0.0 size=N/A time=00:11:32.98 bitrate=N/A speed=19.5x    frame=16849 fps=467 q=-0.0 size=N/A time=00:11:42.74 bitrate=N/A speed=19.5x    frame=17093 fps=467 q=-0.0 size=N/A time=00:11:52.92 bitrate=N/A speed=19.5x    frame=17355 fps=467 q=-0.0 size=N/A time=00:12:03.84 bitrate=N/A speed=19.5x    frame=17627 fps=468 q=-0.0 size=N/A time=00:12:15.19 bitrate=N/A speed=19.5x    frame=17877 fps=468 q=-0.0 size=N/A time=00:12:25.61 bitrate=N/A speed=19.5x    frame=18115 fps=468 q=-0.0 size=N/A time=00:12:35.54 bitrate=N/A speed=19.5x    frame=18366 fps=469 q=-0.0 size=N/A time=00:12:46.01 bitrate=N/A speed=19.5x    frame=18636 fps=469 q=-0.0 size=N/A time=00:12:57.27 bitrate=N/A speed=19.6x    frame=18907 fps=470 q=-0.0 size=N/A time=00:13:08.57 bitrate=N/A speed=19.6x    frame=19156 fps=470 q=-0.0 size=N/A time=00:13:18.96 bitrate=N/A speed=19.6x    frame=19389 fps=470 q=-0.0 size=N/A time=00:13:28.68 bitrate=N/A speed=19.6x    frame=19630 fps=470 q=-0.0 size=N/A time=00:13:38.73 bitrate=N/A speed=19.6x    frame=19894 fps=470 q=-0.0 size=N/A time=00:13:49.74 bitrate=N/A speed=19.6x    frame=20131 fps=470 q=-0.0 size=N/A time=00:13:59.63 bitrate=N/A speed=19.6x    frame=20383 fps=470 q=-0.0 size=N/A time=00:14:10.14 bitrate=N/A speed=19.6x    frame=20636 fps=471 q=-0.0 size=N/A time=00:14:20.69 bitrate=N/A speed=19.6x    frame=20901 fps=471 q=-0.0 size=N/A time=00:14:31.74 bitrate=N/A speed=19.6x    frame=21142 fps=471 q=-0.0 size=N/A time=00:14:41.79 bitrate=N/A speed=19.6x    frame=21404 fps=471 q=-0.0 size=N/A time=00:14:52.72 bitrate=N/A speed=19.7x    frame=21655 fps=472 q=-0.0 size=N/A time=00:15:03.19 bitrate=N/A speed=19.7x    frame=21927 fps=472 q=-0.0 size=N/A time=00:15:14.53 bitrate=N/A speed=19.7x    frame=22187 fps=473 q=-0.0 size=N/A time=00:15:25.38 bitrate=N/A speed=19.7x    frame=22459 fps=473 q=-0.0 size=N/A time=00:15:36.72 bitrate=N/A speed=19.7x    frame=22705 fps=473 q=-0.0 size=N/A time=00:15:46.98 bitrate=N/A speed=19.7x    frame=22961 fps=473 q=-0.0 size=N/A time=00:15:57.66 bitrate=N/A speed=19.7x    frame=23218 fps=474 q=-0.0 size=N/A time=00:16:08.38 bitrate=N/A speed=19.8x    frame=23481 fps=474 q=-0.0 size=N/A time=00:16:19.35 bitrate=N/A speed=19.8x    frame=23727 fps=474 q=-0.0 size=N/A time=00:16:29.61 bitrate=N/A speed=19.8x    frame=23965 fps=474 q=-0.0 size=N/A time=00:16:39.54 bitrate=N/A speed=19.8x    frame=24238 fps=475 q=-0.0 size=N/A time=00:16:50.92 bitrate=N/A speed=19.8x    frame=24506 fps=475 q=-0.0 size=N/A time=00:17:02.10 bitrate=N/A speed=19.8x    frame=24766 fps=475 q=-0.0 size=N/A time=00:17:12.94 bitrate=N/A speed=19.8x    frame=25012 fps=475 q=-0.0 size=N/A time=00:17:23.20 bitrate=N/A speed=19.8x    frame=25266 fps=475 q=-0.0 size=N/A time=00:17:33.80 bitrate=N/A speed=19.8x    frame=25515 fps=475 q=-0.0 size=N/A time=00:17:44.18 bitrate=N/A speed=19.8x    frame=25746 fps=475 q=-0.0 size=N/A time=00:17:53.82 bitrate=N/A speed=19.8x    frame=25989 fps=475 q=-0.0 size=N/A time=00:18:03.95 bitrate=N/A speed=19.8x    frame=26252 fps=475 q=-0.0 size=N/A time=00:18:14.92 bitrate=N/A speed=19.8x    frame=26497 fps=475 q=-0.0 size=N/A time=00:18:25.14 bitrate=N/A speed=19.8x    frame=26759 fps=476 q=-0.0 size=N/A time=00:18:36.07 bitrate=N/A speed=19.8x    frame=27009 fps=476 q=-0.0 size=N/A time=00:18:46.50 bitrate=N/A speed=19.8x    frame=27260 fps=476 q=-0.0 size=N/A time=00:18:56.96 bitrate=N/A speed=19.9x    frame=27508 fps=476 q=-0.0 size=N/A time=00:19:07.31 bitrate=N/A speed=19.9x    frame=27768 fps=476 q=-0.0 size=N/A time=00:19:18.15 bitrate=N/A speed=19.9x    frame=28036 fps=477 q=-0.0 size=N/A time=00:19:29.33 bitrate=N/A speed=19.9x    frame=28310 fps=477 q=-0.0 size=N/A time=00:19:40.76 bitrate=N/A speed=19.9x    frame=28578 fps=478 q=-0.0 size=N/A time=00:19:51.94 bitrate=N/A speed=19.9x    frame=28859 fps=478 q=-0.0 size=N/A time=00:20:03.66 bitrate=N/A speed=19.9x    frame=29126 fps=478 q=-0.0 size=N/A time=00:20:14.79 bitrate=N/A speed=  20x    frame=29405 fps=479 q=-0.0 size=N/A time=00:20:26.43 bitrate=N/A speed=  20x    frame=29663 fps=479 q=-0.0 size=N/A time=00:20:37.19 bitrate=N/A speed=  20x    frame=29918 fps=479 q=-0.0 size=N/A time=00:20:47.82 bitrate=N/A speed=  20x    frame=30180 fps=479 q=-0.0 size=N/A time=00:20:58.75 bitrate=N/A speed=  20x    frame=30417 fps=479 q=-0.0 size=N/A time=00:21:08.64 bitrate=N/A speed=  20x    frame=30640 fps=479 q=-0.0 size=N/A time=00:21:17.94 bitrate=N/A speed=  20x    frame=30869 fps=479 q=-0.0 size=N/A time=00:21:27.49 bitrate=N/A speed=  20x    frame=31126 fps=479 q=-0.0 size=N/A time=00:21:38.21 bitrate=N/A speed=  20x    frame=31357 fps=479 q=-0.0 size=N/A time=00:21:47.84 bitrate=N/A speed=  20x    frame=31623 fps=479 q=-0.0 size=N/A time=00:21:58.94 bitrate=N/A speed=  20x    frame=31881 fps=479 q=-0.0 size=N/A time=00:22:09.70 bitrate=N/A speed=  20x    frame=32139 fps=479 q=-0.0 size=N/A time=00:22:20.46 bitrate=N/A speed=  20x    frame=32380 fps=479 q=-0.0 size=N/A time=00:22:30.51 bitrate=N/A speed=  20x    frame=32596 fps=479 q=-0.0 size=N/A time=00:22:39.52 bitrate=N/A speed=  20x    frame=32840 fps=479 q=-0.0 size=N/A time=00:22:49.70 bitrate=N/A speed=  20x    frame=33102 fps=479 q=-0.0 size=N/A time=00:23:00.62 bitrate=N/A speed=  20x    frame=33332 fps=479 q=-0.0 size=N/A time=00:23:10.22 bitrate=N/A speed=  20x    frame=33572 fps=478 q=-0.0 size=N/A time=00:23:20.23 bitrate=N/A speed=  20x    frame=33827 fps=479 q=-0.0 size=N/A time=00:23:30.86 bitrate=N/A speed=  20x    frame=34084 fps=479 q=-0.0 size=N/A time=00:23:41.58 bitrate=N/A speed=  20x    [Parsed_psnr_10 @ 000002078dd4f140] PSNR y:49.760590 u:51.275633 v:51.046242 average:50.178726 min:41.102088 max:inf
[out#0/null @ 00000207ffb36540] video:14696KiB audio:267508KiB subtitle:0KiB other streams:0KiB global headers:0KiB muxing overhead: unknown
frame=34202 fps=479 q=-0.0 Lsize=N/A time=00:23:46.50 bitrate=N/A speed=  20x    
